<?xml version="1.0" standalone="no"?>
<!DOCTYPE svg PUBLIC "-//W3C//DTD SVG 20010904//EN"
 "http://www.w3.org/TR/2001/REC-SVG-20010904/DTD/svg10.dtd">
<svg version="1.0" xmlns="http://www.w3.org/2000/svg"
 width="512.000000pt" height="512.000000pt" viewBox="0 0 512.000000 512.000000"
 preserveAspectRatio="xMidYMid meet">

<g transform="translate(0.000000,512.000000) scale(0.100000,-0.100000)"
fill="#000000" stroke="none">
<path d="M2330 5110 c-132 -12 -312 -46 -453 -84 -697 -193 -1286 -680 -1607
-1331 -126 -255 -196 -475 -242 -755 -31 -195 -31 -565 0 -760 46 -280 116
-500 242 -755 249 -504 651 -906 1155 -1155 255 -126 475 -196 755 -242 195
-31 565 -31 760 0 276 45 498 116 745 237 267 131 460 269 676 485 210 210
342 387 470 635 292 563 365 1211 204 1824 -48 180 -92 297 -180 476 -131 267
-269 460 -485 676 -210 210 -387 342 -635 470 -431 224 -924 322 -1405 279z
m538 -375 c627 -90 1181 -444 1535 -980 79 -120 187 -343 236 -487 81 -237
115 -449 115 -708 0 -352 -69 -650 -223 -965 -218 -444 -562 -788 -1006 -1006
-222 -109 -448 -177 -695 -210 -122 -17 -418 -17 -540 0 -746 100 -1374 550
-1701 1216 -154 315 -223 613 -223 965 0 352 69 650 223 965 116 237 231 396
420 586 190 189 349 304 586 420 226 110 466 183 695 208 52 6 111 13 130 15
66 8 345 -4 448 -19z"/>
<path d="M1800 3773 c-367 -57 -652 -306 -751 -655 -20 -72 -24 -104 -23 -238
1 -138 3 -164 27 -243 33 -106 79 -200 142 -287 56 -78 1241 -1262 1287 -1286
48 -25 119 -21 170 9 59 35 1223 1205 1280 1287 62 88 103 172 135 277 24 79
27 103 27 243 0 139 -3 164 -27 242 -78 255 -242 452 -470 563 -143 69 -226
88 -392 88 -112 0 -156 -5 -220 -22 -140 -37 -293 -121 -392 -214 l-32 -30
-46 42 c-152 140 -395 233 -605 230 -47 -1 -96 -3 -110 -6z m221 -367 c120
-26 192 -69 320 -193 196 -190 242 -191 428 -10 165 161 265 209 436 209 81 0
113 -5 166 -24 187 -69 303 -193 349 -374 34 -132 21 -252 -41 -377 -27 -54
-102 -133 -575 -607 l-544 -545 -530 530 c-292 292 -545 552 -562 578 -136
211 -107 488 72 667 129 129 306 183 481 146z"/>
</g>
</svg>
