<svg width="410" height="144" viewBox="0 0 410 144" fill="none" xmlns="http://www.w3.org/2000/svg">
<rect x="29.7446" y="72.7409" width="123.964" height="14.8178" fill="#A65317"/>
<rect x="42.8818" y="58.5186" width="96.5495" height="14.7975" fill="#A65317"/>
<rect x="59.2422" y="43.5127" width="64.2895" height="15.0059" fill="#A65317"/>
<rect x="75.0707" y="28.7814" width="31.6736" height="14.8178" fill="#A65317"/>
<rect x="66" y="87" width="10" height="13" fill="#A65317"/>
<rect x="109" y="87" width="10" height="14" fill="#A65317"/>
<rect x="30" y="125" width="11" height="8" rx="4" fill="#783C11"/>
<rect x="32" y="87" width="34" height="44" fill="#A65317"/>
<ellipse cx="49" cy="101" rx="13" ry="10" fill="#783C11"/>
<ellipse cx="49" cy="101" rx="12" ry="10" fill="#FDF4E3"/>
<rect x="29.7446" y="84.5951" width="42.0495" height="1.97571" fill="#783C11"/>
<rect x="71.7941" y="84.5951" width="2.18439" height="1.97571" fill="#783C11"/>
<rect x="110.021" y="84.5951" width="43.6878" height="1.97571" fill="#783C11"/>
<rect x="107.837" y="84.5951" width="2.18439" height="1.97571" fill="#783C11"/>
<rect x="66" y="126" width="46" height="51" rx="23" transform="rotate(-90 66 126)" fill="#FDF4E3"/>
<rect x="75" y="119" width="30" height="32" rx="15" transform="rotate(-90 75 119)" fill="#783C11"/>
<rect x="77" y="119" width="28" height="29" rx="14" transform="rotate(-90 77 119)" fill="#A65317"/>
<rect x="141" y="125" width="13" height="8" rx="4" fill="#783C11"/>
<rect x="85" y="11" width="22" height="21" rx="5" fill="#783C11"/>
<rect x="88" y="14" width="15" height="16" rx="5" fill="#A65317"/>
<rect x="69" y="19" width="14" height="19" rx="5" fill="#783C11"/>
<rect x="30" y="87" width="2" height="40" fill="#783C11"/>
<rect width="5.54374" height="101.857" rx="2.77187" transform="matrix(0.741644 -0.670793 0.741644 0.670793 87.623 26.6527)" fill="#783C11"/>
<rect width="5.54374" height="99.6648" rx="2.77187" transform="matrix(0.741644 0.670793 -0.741644 0.670793 91.6463 22.8542)" fill="#783C11"/>
<rect width="5.54374" height="106.683" rx="2.77187" transform="matrix(0.741644 -0.670793 0.741644 0.670793 87.7679 19.7377)" fill="#FDF4E3"/>
<rect width="5.54374" height="103.542" rx="2.77187" transform="matrix(0.741644 0.670793 -0.741644 0.670793 91.7912 15.9393)" fill="#FDF4E3"/>
<rect x="39" y="131" width="27" height="2" fill="#783C11"/>
<rect x="151" y="87" width="3" height="40" fill="#783C11"/>
<rect x="117" y="131" width="27" height="2" fill="#783C11"/>
<circle cx="72.5" cy="28.5" r="1.5" fill="#E6BFA6"/>
<rect width="20.3356" height="8.66828" rx="4.33414" transform="matrix(0.796569 -0.604547 0.680119 0.733102 38.6746 125.423)" fill="#FCDD76"/>
<rect width="26.0373" height="8.66828" rx="4.33414" transform="matrix(0.796569 -0.604547 0.680119 0.733102 100.258 75.8631)" fill="#FCDD76"/>
<rect width="23.4798" height="8.66828" rx="4.33414" transform="matrix(0.796569 -0.604547 0.680119 0.733102 50.5271 73.4126)" fill="#FCDD76"/>
<rect x="66" y="100" width="9" height="33" fill="#FDF4E3"/>
<rect x="107" y="100" width="10" height="33" fill="#FDF4E3"/>
<rect x="77" y="102" width="29" height="11" fill="#A65317"/>
<rect x="99.645" y="109.292" width="1.09219" height="4.93927" fill="#A65317"/>
<rect x="100.737" y="113.737" width="2.18439" height="0.493927" fill="#A65317"/>
<rect x="100.737" y="109.292" width="0.546097" height="4.44534" fill="#A65317"/>
<rect x="101.283" y="113.243" width="1.63829" height="0.493927" fill="#A65317"/>
<rect x="100.191" y="109.292" width="4.91487" height="0.493927" fill="#A65317"/>
<rect x="102.922" y="110.773" width="2.18439" height="2.46964" fill="#A65317"/>
<rect x="103.468" y="109.785" width="1.63829" height="0.987854" fill="#A65317"/>
<rect x="101.283" y="109.785" width="0.546097" height="3.45749" fill="#A65317"/>
<rect x="101.829" y="110.773" width="0.546097" height="2.46964" fill="#A65317"/>
<rect x="102.922" y="113.243" width="2.18439" height="0.987854" fill="#A65317"/>
<rect x="77" y="113" width="3" height="15" fill="#A65317"/>
<rect x="80" y="113" width="22" height="15" fill="#783C11"/>
<rect x="81" y="114" width="4" height="12" fill="#A65317"/>
<rect x="86" y="114" width="3" height="12" fill="#A65317"/>
<rect x="91" y="114" width="4" height="12" fill="#A65317"/>
<rect x="97" y="114" width="3" height="12" fill="#A65317"/>
<rect x="77" y="128" width="14" height="2" fill="#A65317"/>
<rect x="91" y="128" width="15" height="2" fill="#A65317"/>
<rect x="102" y="114" width="4" height="14" fill="#A65317"/>
<rect x="75" y="102" width="2" height="28" fill="#783C11"/>
<rect x="106" y="101" width="1" height="29" fill="#783C11"/>
<rect x="76.709" y="101.883" width="1.09219" height="12.3482" fill="#A65317"/>
<rect x="77.8012" y="112.996" width="2.18439" height="1.23482" fill="#A65317"/>
<rect x="77.8012" y="101.883" width="0.546097" height="11.1134" fill="#A65317"/>
<rect x="78.3473" y="111.761" width="1.63829" height="1.23482" fill="#A65317"/>
<rect x="77.2551" y="101.883" width="4.91487" height="1.23482" fill="#A65317"/>
<rect x="79.9856" y="105.587" width="2.18439" height="6.17409" fill="#A65317"/>
<rect x="80.5316" y="103.117" width="1.63829" height="2.46964" fill="#A65317"/>
<rect x="78.8934" y="109.785" width="1.63829" height="3.45749" fill="#FDF4E3"/>
<rect x="80.5316" y="109.785" width="0.546097" height="0.987854" fill="#FDF4E3"/>
<rect width="1.63829" height="3.45749" transform="matrix(-1 0 0 1 102.922 109.785)" fill="#FDF4E3"/>
<rect width="0.546097" height="0.987854" transform="matrix(-1 0 0 1 101.283 109.785)" fill="#FDF4E3"/>
<rect x="75.6167" y="130.53" width="31.1275" height="1.97571" fill="#783C11"/>
<rect x="89.8153" y="127.567" width="1.63829" height="2.96356" fill="#783C11"/>
<rect x="75.0707" y="130.53" width="1.09219" height="1.48178" fill="#783C11"/>
<rect x="75.0707" y="132.012" width="31.6736" height="0.987854" fill="#783C11"/>
<rect x="48" y="96" width="3" height="1" fill="#A65317"/>
<rect x="47" y="97" width="2" height="1" fill="#A65317"/>
<rect x="55" y="101" width="2" height="1" fill="#A86F5D"/>
<rect x="117" y="87" width="34" height="44" fill="#A65317"/>
<ellipse cx="38" cy="113.5" rx="1" ry="1.5" fill="#E6BFA6"/>
<ellipse cx="134.5" cy="123" rx="2.5" ry="2" fill="#E6BFA6"/>
<ellipse cx="121" cy="79.5" rx="2" ry="1.5" fill="#E6BFA6"/>
<circle cx="72.5" cy="57.5" r="1.5" fill="#E6BFA6"/>
<circle cx="43.5" cy="76.5" r="1.5" fill="#E6BFA6"/>
<ellipse cx="3.20444" cy="1.46625" rx="3.20444" ry="1.46625" transform="matrix(-0.538056 -0.842909 0.886419 -0.462883 91.6253 78.0186)" fill="#E66716"/>
<rect x="78" y="64" width="9" height="6" rx="3" fill="#783C11"/>
<rect x="95" y="57" width="11" height="13" rx="5.5" fill="#783C11"/>
<rect x="83" y="65" width="17" height="5" fill="#783C11"/>
<ellipse cx="92" cy="53.5" rx="14" ry="13.5" fill="#783C11"/>
<rect x="78" y="54" width="5" height="13" fill="#783C11"/>
<rect x="99" y="54" width="7" height="13" fill="#783C11"/>
<ellipse cx="1.71989" cy="1.46625" rx="1.71989" ry="1.46625" transform="matrix(-0.538056 -0.842909 0.886419 -0.462883 132.077 77.9856)" fill="#FD751F"/>
<rect x="36" y="107" width="9" height="5" rx="2.5" fill="#783C11"/>
<rect x="37" y="106" width="8" height="5" rx="2.5" fill="#FDF4E3"/>
<rect x="54" y="107" width="8" height="5" rx="2.5" fill="#783C11"/>
<rect x="53" y="106" width="8" height="5" rx="2.5" fill="#FDF4E3"/>
<rect x="42" y="109" width="15" height="2" fill="#FDF4E3"/>
<rect x="79" y="63" width="8" height="5" rx="2.5" fill="#FDF4E3"/>
<rect x="95" y="57" width="9" height="11" rx="4.5" fill="#FDF4E3"/>
<rect x="84" y="64" width="15" height="4" fill="#FDF4E3"/>
<rect x="42" y="101" width="7" height="7" fill="#A65317"/>
<rect x="42" y="101" width="7" height="7" fill="#A65317"/>
<rect x="42" y="101" width="7" height="7" fill="#A65317"/>
<rect x="43" y="99" width="6" height="3" fill="#A65317"/>
<rect x="43" y="99" width="6" height="3" fill="#A65317"/>
<rect x="43" y="99" width="6" height="3" fill="#A65317"/>
<rect x="51" y="102" width="5" height="6" fill="#A65317"/>
<rect x="51" y="102" width="5" height="6" fill="#A65317"/>
<rect x="51" y="102" width="5" height="6" fill="#A65317"/>
<rect x="49" y="99" width="6" height="3" fill="#A65317"/>
<rect x="49" y="99" width="6" height="3" fill="#A65317"/>
<rect x="49" y="99" width="6" height="3" fill="#A65317"/>
<rect x="45" y="98" width="4" height="1" fill="#A65317"/>
<rect width="2.64751" height="0.511678" transform="matrix(0.844826 -0.535041 0.612159 0.790735 45.0353 98.3598)" fill="#A65317"/>
<rect width="2.64751" height="0.511678" transform="matrix(0.844826 0.535041 -0.612159 0.790735 51.3556 96.9433)" fill="#A65317"/>
<rect x="51" y="98" width="2" height="1" fill="#A65317"/>
<rect width="5.69843" height="0.613195" transform="matrix(0.844826 -0.535041 0.612159 0.790735 43.0236 98.984)" fill="#A86F5D"/>
<rect width="5.7582" height="0.633819" transform="matrix(0.844826 0.535041 -0.612159 0.790735 50.5031 95.9634)" fill="#A86F5D"/>
<rect x="50" y="103" width="7" height="1" transform="rotate(-90 50 103)" fill="#A86F5D"/>
<rect x="57" y="102" width="4" height="7" fill="#FDF4E3"/>
<rect width="8.85548" height="0.59416" transform="matrix(-0.796569 0.604547 0.680119 0.733102 56.0241 100.92)" fill="#A86F5D"/>
<rect x="37" y="102" width="5" height="7" fill="#FDF4E3"/>
<rect width="9.14237" height="0.562318" transform="matrix(0.796569 0.604547 -0.680119 0.733102 42.1771 100.394)" fill="#A86F5D"/>
<rect width="8.2314" height="0.790288" transform="matrix(0.796569 0.604547 -0.680119 0.733102 43.7583 98.9987)" fill="#A86F5D"/>
<rect width="6.22092" height="0.663309" transform="matrix(-0.796569 0.604547 0.680119 0.733102 54.5368 99.0372)" fill="#A86F5D"/>
<rect x="49" y="95" width="1" height="14" fill="#FDF4E3"/>
<rect width="1.4998" height="8.23767" transform="matrix(0.680119 -0.733102 0.796569 0.604547 41.8951 100.176)" fill="#FDF4E3"/>
<rect width="1.75455" height="7.68178" transform="matrix(0.680119 0.733102 -0.796569 0.604547 55.0432 99.4843)" fill="#FDF4E3"/>
<rect x="39" y="111" width="20" height="1" fill="#783C11"/>
<rect x="61" y="102" width="1" height="7" fill="#783C11"/>
<rect width="1" height="7" transform="matrix(-1 0 0 1 37 102)" fill="#783C11"/>
<rect x="42" y="108" width="7" height="1" fill="#A86F5D"/>
<rect width="7" height="1" transform="matrix(-1 0 0 1 57 108)" fill="#A86F5D"/>
<rect width="8" height="1" transform="matrix(0 -1 -1 0 57 109)" fill="#A86F5D"/>
<rect width="1" height="2" transform="matrix(-1 0 0 1 51 106)" fill="#A86F5D"/>
<ellipse cx="134.5" cy="100.5" rx="12.5" ry="9.5" fill="#783C11"/>
<ellipse cx="134.5" cy="100.5" rx="12.5" ry="9.5" fill="#FDF4E3"/>
<rect x="129" y="98" width="1" height="1" fill="#A65317"/>
<rect x="138" y="98" width="1" height="1" fill="#A65317"/>
<rect x="131" y="97" width="2" height="1" fill="#A65317"/>
<rect x="136" y="97" width="1" height="1" fill="#A65317"/>
<rect x="132" y="96" width="1" height="1" fill="#A65317"/>
<rect x="136" y="96" width="1" height="1" fill="#A65317"/>
<rect x="122" y="106" width="7" height="6" rx="3" fill="#783C11"/>
<rect x="122" y="105" width="8" height="5" rx="2.5" fill="#FDF4E3"/>
<rect x="139" y="106" width="8" height="6" rx="3" fill="#783C11"/>
<rect x="138" y="105" width="9" height="5" rx="2.5" fill="#FDF4E3"/>
<rect x="127" y="108" width="14" height="2" fill="#FDF4E3"/>
<rect x="127" y="100" width="6" height="7" fill="#A65317"/>
<rect x="127" y="100" width="6" height="7" fill="#A65317"/>
<rect x="127" y="100" width="6" height="7" fill="#A65317"/>
<rect x="128" y="99" width="7" height="2" fill="#A65317"/>
<rect x="128" y="99" width="7" height="2" fill="#A65317"/>
<rect x="128" y="99" width="7" height="2" fill="#A65317"/>
<rect x="136" y="101" width="5" height="6" fill="#A65317"/>
<rect x="136" y="101" width="5" height="6" fill="#A65317"/>
<rect x="136" y="101" width="5" height="6" fill="#A65317"/>
<rect x="135" y="99" width="6" height="2" fill="#A65317"/>
<rect x="135" y="99" width="6" height="2" fill="#A65317"/>
<rect x="135" y="99" width="6" height="2" fill="#A65317"/>
<rect x="133" y="103" width="8" height="1" transform="rotate(-90 133 103)" fill="#A86F5D"/>
<rect x="130" y="98" width="3" height="1" fill="#A65317"/>
<rect width="2.64751" height="0.511678" transform="matrix(0.844826 -0.535041 0.612159 0.790735 130.226 97.8659)" fill="#A65317"/>
<rect width="2.64751" height="0.511678" transform="matrix(0.844826 0.535041 -0.612159 0.790735 136.547 96.4494)" fill="#A65317"/>
<rect x="136" y="98" width="2" height="1" fill="#A65317"/>
<rect width="5.69843" height="0.613195" transform="matrix(0.844826 -0.535041 0.612159 0.790735 128.215 98.49)" fill="#A86F5D"/>
<rect width="5.7582" height="0.633819" transform="matrix(0.844826 0.535041 -0.612159 0.790735 135.694 95.4695)" fill="#A86F5D"/>
<rect x="135" y="103" width="8" height="1" transform="rotate(-90 135 103)" fill="#A86F5D"/>
<rect x="141" y="102" width="6" height="6" fill="#FDF4E3"/>
<rect width="8.85548" height="0.59416" transform="matrix(-0.796569 0.604547 0.680119 0.733102 141.215 100.426)" fill="#A86F5D"/>
<rect x="122" y="102" width="5" height="6" fill="#FDF4E3"/>
<rect width="9.14237" height="0.562318" transform="matrix(0.796569 0.604547 -0.680119 0.733102 127.368 99.9003)" fill="#A86F5D"/>
<rect width="8.2314" height="0.790288" transform="matrix(0.796569 0.604547 -0.680119 0.733102 128.949 98.5048)" fill="#A86F5D"/>
<rect width="6.22092" height="0.663309" transform="matrix(-0.796569 0.604547 0.680119 0.733102 139.728 98.5433)" fill="#A86F5D"/>
<rect x="134" y="95" width="1" height="13" fill="#FDF4E3"/>
<rect width="1.4998" height="8.23767" transform="matrix(0.680119 -0.733102 0.796569 0.604547 127.086 99.6825)" fill="#FDF4E3"/>
<rect width="1.75455" height="7.68178" transform="matrix(0.680119 0.733102 -0.796569 0.604547 140.234 98.9903)" fill="#FDF4E3"/>
<rect x="125" y="110" width="19" height="2" fill="#783C11"/>
<rect x="127" y="107" width="7" height="1" fill="#A86F5D"/>
<rect x="133" y="105" width="1" height="2" fill="#A86F5D"/>
<rect width="6" height="1" transform="matrix(-1 0 0 1 141 107)" fill="#A86F5D"/>
<rect width="1" height="2" transform="matrix(-1 0 0 1 136 105)" fill="#A86F5D"/>
<ellipse cx="91.5" cy="54" rx="12.5" ry="13" fill="#FDF4E3"/>
<ellipse cx="144" cy="119" rx="2" ry="1" fill="#731616"/>
<ellipse cx="90" cy="35.5" rx="2" ry="1.5" fill="#731616"/>
<circle cx="72.5" cy="79.5" r="1.5" fill="#731616"/>
<ellipse cx="91.5" cy="54.5" rx="7.5" ry="9.5" fill="#783C11"/>
<ellipse cx="92" cy="55" rx="6" ry="9" fill="#A65317"/>
<rect x="79" y="54" width="5" height="12" fill="#FDF4E3"/>
<rect x="99" y="54" width="5" height="12" fill="#FDF4E3"/>
<rect x="83" y="55" width="16" height="3" fill="#FDF4E3"/>
<rect x="90" y="50" width="3" height="14" fill="#FDF4E3"/>
<rect width="11.4956" height="1.06154" transform="matrix(0.191349 -0.981522 0.98752 0.157492 91.1229 54.9572)" fill="#FDF4E3"/>
<rect x="89" y="50" width="1" height="5" fill="#783C11"/>
<rect width="9.62418" height="1.09561" transform="matrix(0.191349 0.981522 -0.98752 0.157492 90.0592 45.1215)" fill="#FDF4E3"/>
<rect x="83" y="58" width="7" height="6" fill="#783C11"/>
<rect x="84" y="59" width="5" height="5" fill="#A65317"/>
<rect x="93" y="58" width="6" height="6" fill="#783C11"/>
<rect x="93" y="59" width="5" height="5" fill="#A65317"/>
<rect width="0.544597" height="2.44062" transform="matrix(0.98752 0.157492 -0.191349 0.981522 105.257 63.8867)" fill="#A65317"/>
<path d="M197.39 31.21V52H194.48V33.7H184.49V52H181.58V31.21H197.39ZM213.207 44.23C213.207 42.41 212.757 41.01 211.857 40.03C210.957 39.05 209.757 38.56 208.257 38.56C207.417 38.56 206.757 38.59 206.277 38.65C205.817 38.71 205.447 38.78 205.167 38.86V48.7C205.507 48.98 205.997 49.25 206.637 49.51C207.277 49.77 207.977 49.9 208.737 49.9C209.537 49.9 210.217 49.76 210.777 49.48C211.357 49.18 211.827 48.78 212.187 48.28C212.547 47.76 212.807 47.16 212.967 46.48C213.127 45.78 213.207 45.03 213.207 44.23ZM216.117 44.23C216.117 45.41 215.957 46.5 215.637 47.5C215.337 48.5 214.887 49.36 214.287 50.08C213.687 50.8 212.947 51.36 212.067 51.76C211.207 52.16 210.217 52.36 209.097 52.36C208.197 52.36 207.397 52.24 206.697 52C206.017 51.76 205.507 51.53 205.167 51.31V57.55H202.377V36.88C203.037 36.72 203.857 36.55 204.837 36.37C205.837 36.17 206.987 36.07 208.287 36.07C209.487 36.07 210.567 36.26 211.527 36.64C212.487 37.02 213.307 37.56 213.987 38.26C214.667 38.96 215.187 39.82 215.547 40.84C215.927 41.84 216.117 42.97 216.117 44.23ZM226.493 45.94C226.193 45.94 225.903 45.94 225.623 45.94C225.343 45.92 225.073 45.9 224.813 45.88C224.173 46.84 223.553 47.87 222.953 48.97C222.373 50.05 221.853 51.06 221.393 52H218.573C218.813 51.42 219.093 50.83 219.413 50.23C219.733 49.61 220.053 49.01 220.373 48.43C220.713 47.85 221.053 47.3 221.393 46.78C221.733 46.26 222.053 45.79 222.353 45.37C221.793 45.17 221.333 44.93 220.973 44.65C220.613 44.35 220.323 44.02 220.103 43.66C219.883 43.3 219.723 42.92 219.623 42.52C219.543 42.1 219.503 41.68 219.503 41.26C219.503 40.38 219.663 39.61 219.983 38.95C220.323 38.29 220.783 37.75 221.363 37.33C221.943 36.89 222.623 36.56 223.403 36.34C224.203 36.12 225.073 36.01 226.013 36.01C227.333 36.01 228.453 36.07 229.373 36.19C230.293 36.31 231.063 36.45 231.683 36.61V52H228.923V45.94H226.493ZM228.923 38.47C228.703 38.43 228.333 38.39 227.813 38.35C227.313 38.31 226.733 38.29 226.073 38.29C224.933 38.29 224.013 38.53 223.313 39.01C222.613 39.47 222.263 40.21 222.263 41.23C222.263 42.23 222.623 42.92 223.343 43.3C224.063 43.68 224.993 43.87 226.133 43.87H228.923V38.47ZM249.258 52H246.468V45.1H239.268V52H236.478V36.4H239.268V42.76H246.468V36.4H249.258V52ZM267.166 36.4V52H264.466V40.12C263.866 40.88 263.206 41.77 262.486 42.79C261.766 43.81 261.046 44.87 260.326 45.97C259.606 47.05 258.916 48.12 258.256 49.18C257.596 50.24 257.026 51.18 256.546 52H254.056V36.4H256.756V47.62C257.276 46.76 257.866 45.82 258.526 44.8C259.186 43.76 259.866 42.74 260.566 41.74C261.286 40.72 261.996 39.75 262.696 38.83C263.416 37.89 264.086 37.08 264.706 36.4H267.166ZM273.727 36.4V40.99C273.727 42.17 274.027 43 274.627 43.48C275.227 43.94 276.047 44.17 277.087 44.17C277.847 44.17 278.477 44.13 278.977 44.05C279.497 43.97 279.957 43.88 280.357 43.78V36.4H283.147V52H280.357V45.94C280.197 45.98 279.987 46.03 279.727 46.09C279.467 46.15 279.167 46.21 278.827 46.27C278.507 46.31 278.167 46.35 277.807 46.39C277.447 46.43 277.097 46.45 276.757 46.45C275.897 46.45 275.107 46.36 274.387 46.18C273.687 46 273.077 45.7 272.557 45.28C272.057 44.86 271.657 44.31 271.357 43.63C271.077 42.93 270.937 42.06 270.937 41.02V36.4H273.727ZM300.733 52H297.943V45.1H290.743V52H287.953V36.4H290.743V42.76H297.943V36.4H300.733V52ZM311.261 44.29C310.721 44.29 310.191 44.31 309.671 44.35C309.171 44.37 308.721 44.43 308.321 44.53V49.9C308.441 49.92 308.611 49.94 308.831 49.96C309.071 49.98 309.321 50 309.581 50.02C309.861 50.02 310.141 50.03 310.421 50.05C310.701 50.05 310.951 50.05 311.171 50.05C312.391 50.05 313.331 49.82 313.991 49.36C314.651 48.9 314.981 48.16 314.981 47.14C314.981 46.64 314.871 46.21 314.651 45.85C314.451 45.49 314.171 45.2 313.811 44.98C313.471 44.74 313.081 44.57 312.641 44.47C312.201 44.35 311.741 44.29 311.261 44.29ZM305.531 36.4H308.321V42.37C308.661 42.29 309.151 42.21 309.791 42.13C310.451 42.05 311.081 42.01 311.681 42.01C312.501 42.01 313.281 42.11 314.021 42.31C314.761 42.49 315.411 42.79 315.971 43.21C316.531 43.61 316.971 44.14 317.291 44.8C317.631 45.44 317.801 46.21 317.801 47.11C317.801 48.05 317.641 48.85 317.321 49.51C317.001 50.17 316.551 50.71 315.971 51.13C315.391 51.55 314.691 51.85 313.871 52.03C313.051 52.23 312.151 52.33 311.171 52.33C310.231 52.33 309.281 52.27 308.321 52.15C307.361 52.05 306.431 51.89 305.531 51.67V36.4ZM323.471 52H320.681V36.4H323.471V52ZM341.375 36.4V52H338.675V40.12C338.075 40.88 337.415 41.77 336.695 42.79C335.975 43.81 335.255 44.87 334.535 45.97C333.815 47.05 333.125 48.12 332.465 49.18C331.805 50.24 331.235 51.18 330.755 52H328.265V36.4H330.965V47.62C331.485 46.76 332.075 45.82 332.735 44.8C333.395 43.76 334.075 42.74 334.775 41.74C335.495 40.72 336.205 39.75 336.905 38.83C337.625 37.89 338.295 37.08 338.915 36.4H341.375ZM334.835 33.88C333.575 33.88 332.545 33.56 331.745 32.92C330.965 32.28 330.495 31.39 330.335 30.25L332.465 29.68C332.625 30.32 332.895 30.84 333.275 31.24C333.655 31.64 334.175 31.84 334.835 31.84C335.495 31.84 336.015 31.64 336.395 31.24C336.775 30.84 337.045 30.32 337.205 29.68L339.305 30.25C339.145 31.39 338.675 32.28 337.895 32.92C337.115 33.56 336.095 33.88 334.835 33.88Z" fill="black"/>
<path d="M223.24 84V89.55H220.48V81.51H222.67C223.69 80.35 224.47 79.07 225.01 77.67C225.57 76.25 225.97 74.76 226.21 73.2C226.47 71.62 226.62 69.99 226.66 68.31C226.72 66.63 226.76 64.93 226.78 63.21H238.54V81.51H241.15V89.55H238.39V84H223.24ZM229.63 65.7C229.57 67.02 229.5 68.37 229.42 69.75C229.36 71.11 229.21 72.47 228.97 73.83C228.75 75.17 228.42 76.49 227.98 77.79C227.54 79.09 226.92 80.33 226.12 81.51H235.63V65.7H229.63ZM257.85 76.2C257.85 77.44 257.67 78.56 257.31 79.56C256.95 80.56 256.44 81.42 255.78 82.14C255.14 82.86 254.37 83.42 253.47 83.82C252.57 84.2 251.59 84.39 250.53 84.39C249.47 84.39 248.49 84.2 247.59 83.82C246.69 83.42 245.91 82.86 245.25 82.14C244.61 81.42 244.11 80.56 243.75 79.56C243.39 78.56 243.21 77.44 243.21 76.2C243.21 74.98 243.39 73.87 243.75 72.87C244.11 71.85 244.61 70.98 245.25 70.26C245.91 69.54 246.69 68.99 247.59 68.61C248.49 68.21 249.47 68.01 250.53 68.01C251.59 68.01 252.57 68.21 253.47 68.61C254.37 68.99 255.14 69.54 255.78 70.26C256.44 70.98 256.95 71.85 257.31 72.87C257.67 73.87 257.85 74.98 257.85 76.2ZM254.94 76.2C254.94 74.44 254.54 73.05 253.74 72.03C252.96 70.99 251.89 70.47 250.53 70.47C249.17 70.47 248.09 70.99 247.29 72.03C246.51 73.05 246.12 74.44 246.12 76.2C246.12 77.96 246.51 79.36 247.29 80.4C248.09 81.42 249.17 81.93 250.53 81.93C251.89 81.93 252.96 81.42 253.74 80.4C254.54 79.36 254.94 77.96 254.94 76.2ZM264.745 72.51C264.545 74.49 264.395 76.47 264.295 78.45C264.195 80.41 264.115 82.26 264.055 84H261.385C261.425 82.78 261.485 81.51 261.565 80.19C261.645 78.85 261.735 77.51 261.835 76.17C261.935 74.81 262.045 73.48 262.165 72.18C262.285 70.86 262.415 69.6 262.555 68.4H265.105C265.745 69.44 266.495 70.87 267.355 72.69C268.215 74.49 269.205 76.57 270.325 78.93C271.445 76.57 272.435 74.49 273.295 72.69C274.155 70.87 274.905 69.44 275.545 68.4H278.125C278.265 69.6 278.395 70.86 278.515 72.18C278.635 73.48 278.745 74.81 278.845 76.17C278.945 77.51 279.035 78.85 279.115 80.19C279.195 81.51 279.255 82.78 279.295 84H276.535C276.475 82.26 276.395 80.41 276.295 78.45C276.195 76.47 276.045 74.49 275.845 72.51C275.525 73.13 275.155 73.88 274.735 74.76C274.315 75.62 273.895 76.5 273.475 77.4C273.075 78.3 272.695 79.16 272.335 79.98C271.975 80.8 271.695 81.45 271.495 81.93H269.155C268.935 81.43 268.635 80.77 268.255 79.95C267.895 79.13 267.505 78.27 267.085 77.37C266.685 76.45 266.275 75.56 265.855 74.7C265.435 73.82 265.065 73.09 264.745 72.51ZM296.828 68.4V84H294.128V72.12C293.528 72.88 292.868 73.77 292.148 74.79C291.428 75.81 290.708 76.87 289.988 77.97C289.268 79.05 288.578 80.12 287.918 81.18C287.258 82.24 286.688 83.18 286.208 84H283.718V68.4H286.418V79.62C286.938 78.76 287.528 77.82 288.188 76.8C288.848 75.76 289.528 74.74 290.228 73.74C290.948 72.72 291.658 71.75 292.358 70.83C293.078 69.89 293.748 69.08 294.368 68.4H296.828ZM307.319 75.51C307.939 75.95 308.609 76.51 309.329 77.19C310.049 77.85 310.749 78.57 311.429 79.35C312.129 80.13 312.779 80.93 313.379 81.75C313.979 82.55 314.489 83.3 314.909 84H311.609C311.169 83.32 310.649 82.63 310.049 81.93C309.469 81.21 308.859 80.52 308.219 79.86C307.579 79.2 306.929 78.59 306.269 78.03C305.609 77.47 304.989 77 304.409 76.62V84H301.619V68.4H304.409V75.09C304.889 74.63 305.439 74.1 306.059 73.5C306.679 72.88 307.299 72.26 307.919 71.64C308.559 71 309.149 70.4 309.689 69.84C310.229 69.26 310.669 68.78 311.009 68.4H314.249C313.809 68.88 313.289 69.43 312.689 70.05C312.109 70.65 311.499 71.27 310.859 71.91C310.239 72.55 309.619 73.19 308.999 73.83C308.379 74.45 307.819 75.01 307.319 75.51Z" fill="black"/>
</svg>
